<?xml version="1.0" encoding="utf-8"?>
<!-- Generator: Adobe Illustrator 16.0.3, SVG Export Plug-In . SVG Version: 6.00 Build 0)  -->
<!DOCTYPE svg PUBLIC "-//W3C//DTD SVG 1.1//EN" "http://www.w3.org/Graphics/SVG/1.1/DTD/svg11.dtd">
<svg version="1.1" id="Capa_1" xmlns="http://www.w3.org/2000/svg" xmlns:xlink="http://www.w3.org/1999/xlink" x="0px" y="0px"
	 width="164.704px" height="71px" viewBox="0 0 164.704 71" enable-background="new 0 0 164.704 71" xml:space="preserve">
<g>
	<g>
		<g>
			<g>
				<g>
					<path fill="#ED7C41" d="M29.14,20.865c-1.049-0.909-2.397-1.368-4-1.368c-3.755,0-6.959,1.156-9.529,3.433
						c-2.564,2.279-3.868,5.123-3.868,8.457v2.963c0,0.086-0.015,0.644-0.045,1.67l-0.015,0.521v1.11
						c0,0.595-0.203,1.053-0.638,1.439c-0.436,0.388-0.954,0.567-1.623,0.567c-1.617,0-2.959,0.477-3.994,1.416
						c-1.024,0.932-1.541,2.128-1.541,3.555c0,1.43,0.522,2.617,1.556,3.53c1.029,0.918,2.367,1.381,3.979,1.381
						c3.72,0,6.904-1.165,9.474-3.464c2.554-2.289,3.877-5.118,3.923-8.411l0.061-6.278c0-0.559,0.193-0.99,0.608-1.359
						c0.441-0.392,1.075-0.616,1.927-0.679c1.54-0.117,2.817-0.616,3.801-1.479c1.008-0.9,1.521-2.061,1.521-3.455
						C30.736,22.975,30.199,21.782,29.14,20.865z M27.153,26.037c-0.482,0.433-1.135,0.67-1.987,0.734
						c-1.547,0.116-2.803,0.598-3.736,1.43c-0.973,0.859-1.465,1.93-1.465,3.172l-0.061,6.265c-0.036,2.632-1.045,4.796-3.077,6.617
						c-2.033,1.817-4.45,2.699-7.405,2.699c-0.831,0-1.444-0.197-1.921-0.62c-0.477-0.424-0.699-0.968-0.699-1.705
						c0-0.752,0.223-1.305,0.709-1.75c0.482-0.432,1.084-0.635,1.911-0.635c1.456,0,2.692-0.444,3.68-1.326
						c0.994-0.878,1.496-1.975,1.496-3.267V36.59l0.016-0.508c0.04-1.539,0.045-1.682,0.045-1.728v-2.968
						c0-2.659,0.983-4.827,3.011-6.627c2.032-1.804,4.476-2.676,7.471-2.676c0.841,0,1.466,0.202,1.967,0.629
						c0.487,0.428,0.714,0.968,0.714,1.701C27.822,25.115,27.609,25.633,27.153,26.037z"/>
				</g>
			</g>
			<g>
				<path fill="#FFFFFF" d="M27.822,24.414c0,0.701-0.213,1.219-0.668,1.623c-0.482,0.433-1.135,0.67-1.987,0.734
					c-1.547,0.116-2.803,0.598-3.736,1.43c-0.973,0.859-1.465,1.93-1.465,3.172l-0.061,6.265c-0.036,2.632-1.045,4.796-3.077,6.617
					c-2.033,1.817-4.45,2.699-7.405,2.699c-0.831,0-1.444-0.197-1.921-0.62c-0.477-0.424-0.699-0.968-0.699-1.705
					c0-0.752,0.223-1.305,0.709-1.75c0.482-0.432,1.084-0.635,1.911-0.635c1.456,0,2.692-0.444,3.68-1.326
					c0.994-0.878,1.496-1.975,1.496-3.267V36.59l0.016-0.508c0.04-1.539,0.045-1.682,0.045-1.728v-2.968
					c0-2.659,0.983-4.827,3.011-6.627c2.032-1.804,4.476-2.676,7.471-2.676c0.841,0,1.466,0.202,1.967,0.629
					C27.594,23.141,27.822,23.681,27.822,24.414z"/>
			</g>
		</g>
	</g>
	<g>
		<g>
			<g>
				<g>
					<path fill="#ED7C41" d="M54.676,31.229c-1.561,0-2.899,0.468-3.969,1.395c-1.079,0.931-1.626,2.113-1.626,3.518v0.486
						c0,0.881-0.325,1.605-0.983,2.203c-0.669,0.603-1.439,0.882-2.434,0.882c-0.988,0-1.799-0.292-2.473-0.891
						c-0.685-0.607-1.004-1.304-1.004-2.194v-7.139h12.49c3.518,0,5.54-1.809,5.54-4.966c0-1.431-0.522-2.623-1.556-3.536
						c-1.029-0.918-2.372-1.381-3.984-1.381h-12.49v-1.57c0-1.43-0.532-2.631-1.586-3.563c-1.05-0.936-2.403-1.408-4.01-1.408
						c-1.621,0-2.965,0.478-3.999,1.422c-1.023,0.926-1.541,2.123-1.541,3.549v18.592c0,3.656,1.414,6.765,4.202,9.238
						c2.788,2.475,6.29,3.729,10.411,3.729c4.081,0,7.563-1.265,10.351-3.761c2.787-2.492,4.202-5.592,4.202-9.207v-0.486
						c0-1.395-0.537-2.572-1.586-3.509C57.58,31.701,56.248,31.229,54.676,31.229z M57.302,36.627c0,2.95-1.096,5.366-3.356,7.385
						c-2.25,2.016-4.962,2.996-8.283,2.996c-3.365,0-6.098-0.972-8.348-2.974c-2.256-1.997-3.35-4.421-3.35-7.407V18.035
						c0-0.751,0.229-1.305,0.714-1.75c0.477-0.431,1.08-0.634,1.911-0.634c0.833,0,1.456,0.207,1.952,0.648
						c0.497,0.445,0.73,0.994,0.73,1.735v4.156h15.404c0.836,0,1.449,0.198,1.926,0.621s0.7,0.967,0.7,1.71
						c0,1.735-0.71,2.378-2.626,2.378H39.272v9.727c0,1.578,0.628,2.928,1.86,4.021c1.232,1.093,2.757,1.651,4.531,1.651
						c1.779,0,3.3-0.559,4.512-1.66c1.206-1.093,1.814-2.443,1.814-4.012v-0.486c0-0.697,0.238-1.229,0.75-1.669
						c0.522-0.45,1.136-0.661,1.937-0.661c0.796,0,1.394,0.207,1.896,0.648c0.497,0.445,0.73,0.98,0.73,1.682V36.627z"/>
				</g>
			</g>
			<g>
				<path fill="#FFFFFF" d="M56.572,34.459c0.497,0.445,0.73,0.98,0.73,1.682v0.486c0,2.95-1.096,5.366-3.356,7.385
					c-2.25,2.016-4.962,2.996-8.283,2.996c-3.365,0-6.098-0.972-8.348-2.974c-2.256-1.997-3.35-4.421-3.35-7.407V18.035
					c0-0.751,0.229-1.305,0.714-1.75c0.477-0.431,1.08-0.634,1.911-0.634c0.833,0,1.456,0.207,1.952,0.648
					c0.497,0.445,0.73,0.994,0.73,1.735v4.156h15.404c0.836,0,1.449,0.198,1.926,0.621s0.7,0.967,0.7,1.71
					c0,1.735-0.71,2.378-2.626,2.378H39.272v9.727c0,1.578,0.628,2.928,1.86,4.021c1.232,1.093,2.757,1.651,4.531,1.651
					c1.779,0,3.3-0.559,4.512-1.66c1.206-1.093,1.814-2.443,1.814-4.012v-0.486c0-0.697,0.238-1.229,0.75-1.669
					c0.522-0.45,1.136-0.661,1.937-0.661C55.472,33.811,56.07,34.018,56.572,34.459z"/>
			</g>
		</g>
	</g>
	<g>
		<g>
			<g>
				<g>
					<path fill="#ED7C41" d="M102.402,53.021c-1.033-0.939-2.377-1.416-3.994-1.416h-0.303c-1,0-1.77-0.283-2.434-0.882
						c-0.664-0.603-0.984-1.323-0.984-2.204V23.492c0-4.229-1.662-7.836-4.936-10.724c-3.275-2.888-7.349-4.351-12.115-4.351
						c-4.764,0-8.829,1.463-12.084,4.351c-3.254,2.888-4.901,6.495-4.901,10.724v21.19c0,1.431,0.522,2.617,1.55,3.536
						c1.034,0.912,2.372,1.376,3.984,1.376c1.607,0,2.95-0.46,3.999-1.368c1.064-0.918,1.602-2.108,1.602-3.544v-21.19
						c0-1.457,0.559-2.658,1.703-3.68c1.146-1.017,2.504-1.512,4.146-1.512c1.647,0,3.016,0.495,4.188,1.516
						c1.16,1.021,1.729,2.223,1.729,3.676c0,1.461-0.568,2.672-1.738,3.711c-1.167,1.034-2.535,1.538-4.178,1.538
						c-1.611,0-2.949,0.463-3.984,1.376c-1.028,0.918-1.55,2.105-1.55,3.535c0,1.427,0.517,2.623,1.535,3.555
						c1.034,0.939,2.378,1.416,3.999,1.416c2.043,0,4.024-0.31,5.916-0.926V48.52c0,3.616,1.408,6.711,4.197,9.203
						c2.787,2.496,6.275,3.76,10.355,3.76h0.303c1.566,0,2.9-0.472,3.955-1.403c1.049-0.935,1.58-2.114,1.58-3.509
						C103.943,55.146,103.428,53.953,102.402,53.021z M100.301,58.249c-0.498,0.445-1.102,0.652-1.893,0.652h-0.303
						c-3.326,0-6.031-0.98-8.287-2.996c-2.256-2.021-3.357-4.435-3.357-7.386V33.568l-2.134,0.997
						c-2.093,0.978-4.343,1.472-6.69,1.472c-0.826,0-1.434-0.203-1.911-0.634c-0.485-0.446-0.714-0.999-0.714-1.751
						c0-0.737,0.223-1.281,0.704-1.704c0.476-0.427,1.085-0.62,1.921-0.62c2.423,0,4.521-0.773,6.24-2.3
						c1.718-1.524,2.584-3.387,2.584-5.536c0-2.15-0.871-4.004-2.595-5.516c-1.718-1.502-3.812-2.262-6.229-2.262
						s-4.506,0.765-6.204,2.271c-1.697,1.506-2.56,3.359-2.56,5.506v21.19c0,0.732-0.229,1.269-0.715,1.691
						c-0.501,0.431-1.131,0.634-1.972,0.634c-0.836,0-1.444-0.197-1.926-0.621c-0.477-0.422-0.7-0.967-0.7-1.704v-21.19
						c0-3.568,1.328-6.479,4.051-8.894c2.727-2.42,6.006-3.594,10.025-3.594c4.024,0,7.314,1.174,10.062,3.594
						c2.743,2.42,4.075,5.331,4.075,8.894V48.52c0,1.569,0.609,2.919,1.814,4.012c1.217,1.098,2.732,1.656,4.518,1.656h0.303
						c0.826,0,1.43,0.201,1.906,0.639c0.492,0.44,0.715,0.998,0.715,1.744C101.029,57.273,100.797,57.808,100.301,58.249z"/>
				</g>
			</g>
			<g>
				<path fill="#FFFFFF" d="M101.029,56.57c0,0.703-0.232,1.237-0.729,1.679c-0.498,0.445-1.102,0.652-1.893,0.652h-0.303
					c-3.326,0-6.031-0.98-8.287-2.996c-2.256-2.021-3.357-4.435-3.357-7.386V33.568l-2.134,0.997
					c-2.093,0.978-4.343,1.472-6.69,1.472c-0.826,0-1.434-0.203-1.911-0.634c-0.485-0.446-0.714-0.999-0.714-1.751
					c0-0.737,0.223-1.281,0.704-1.704c0.476-0.427,1.085-0.62,1.921-0.62c2.423,0,4.521-0.773,6.24-2.3
					c1.718-1.524,2.584-3.387,2.584-5.536c0-2.15-0.871-4.004-2.595-5.516c-1.718-1.502-3.812-2.262-6.229-2.262
					s-4.506,0.765-6.204,2.271c-1.697,1.506-2.56,3.359-2.56,5.506v21.19c0,0.732-0.229,1.269-0.715,1.691
					c-0.501,0.431-1.131,0.634-1.972,0.634c-0.836,0-1.444-0.197-1.926-0.621c-0.477-0.422-0.7-0.967-0.7-1.704v-21.19
					c0-3.568,1.328-6.479,4.051-8.894c2.727-2.42,6.006-3.594,10.025-3.594c4.024,0,7.314,1.174,10.062,3.594
					c2.743,2.42,4.075,5.331,4.075,8.894V48.52c0,1.569,0.609,2.919,1.814,4.012c1.217,1.098,2.732,1.656,4.518,1.656h0.303
					c0.826,0,1.43,0.201,1.906,0.639C100.807,55.267,101.029,55.824,101.029,56.57z"/>
			</g>
		</g>
	</g>
	<g>
		<g>
			<g>
				<g>
					<path fill="#ED7C41" d="M120.311,20.865c-1.049-0.909-2.393-1.368-4-1.368c-3.754,0-6.959,1.156-9.523,3.433
						c-2.57,2.279-3.867,5.123-3.867,8.457v2.963c-0.006,0.086-0.02,0.617-0.045,1.602l-0.016,0.59v1.11
						c0,0.595-0.203,1.053-0.645,1.439c-0.436,0.388-0.947,0.567-1.615,0.567c-1.623,0-2.967,0.477-4,1.416
						c-1.02,0.932-1.537,2.128-1.537,3.555c0,1.43,0.523,2.617,1.553,3.53c1.027,0.918,2.371,1.381,3.984,1.381
						c3.715,0,6.902-1.165,9.467-3.464c2.561-2.289,3.879-5.118,3.924-8.411l0.061-6.278c0-0.559,0.197-0.99,0.613-1.359
						c0.441-0.392,1.07-0.616,1.922-0.679c1.545-0.117,2.822-0.616,3.801-1.479c1.008-0.9,1.521-2.061,1.521-3.455
						C121.908,22.975,121.371,21.782,120.311,20.865z M118.328,26.037c-0.486,0.433-1.135,0.67-1.986,0.734
						c-1.545,0.116-2.803,0.598-3.74,1.43c-0.969,0.859-1.461,1.93-1.461,3.172l-0.061,6.265c-0.035,2.632-1.043,4.796-3.082,6.617
						c-2.027,1.817-4.449,2.699-7.398,2.699c-0.838,0-1.445-0.197-1.928-0.62c-0.477-0.424-0.699-0.968-0.699-1.705
						c0-0.752,0.229-1.305,0.715-1.75c0.477-0.432,1.084-0.635,1.912-0.635c1.449,0,2.689-0.444,3.68-1.326
						c0.988-0.878,1.49-1.975,1.49-3.267V36.59l0.014-0.575c0.041-1.476,0.047-1.614,0.047-1.66v-2.968
						c0-2.659,0.988-4.827,3.016-6.627c2.027-1.804,4.471-2.676,7.465-2.676c0.842,0,1.471,0.202,1.969,0.629
						c0.49,0.428,0.719,0.968,0.719,1.701C118.998,25.115,118.785,25.633,118.328,26.037z"/>
				</g>
			</g>
			<g>
				<path fill="#FFFFFF" d="M118.998,24.414c0,0.701-0.213,1.219-0.67,1.623c-0.486,0.433-1.135,0.67-1.986,0.734
					c-1.545,0.116-2.803,0.598-3.74,1.43c-0.969,0.859-1.461,1.93-1.461,3.172l-0.061,6.265c-0.035,2.632-1.043,4.796-3.082,6.617
					c-2.027,1.817-4.449,2.699-7.398,2.699c-0.838,0-1.445-0.197-1.928-0.62c-0.477-0.424-0.699-0.968-0.699-1.705
					c0-0.752,0.229-1.305,0.715-1.75c0.477-0.432,1.084-0.635,1.912-0.635c1.449,0,2.689-0.444,3.68-1.326
					c0.988-0.878,1.49-1.975,1.49-3.267V36.59l0.014-0.575c0.041-1.476,0.047-1.614,0.047-1.66v-2.968
					c0-2.659,0.988-4.827,3.016-6.627c2.027-1.804,4.471-2.676,7.465-2.676c0.842,0,1.471,0.202,1.969,0.629
					C118.77,23.141,118.998,23.681,118.998,24.414z"/>
			</g>
		</g>
	</g>
	<g>
		<g>
			<g>
				<g>
					<path fill="#ED7C41" d="M159.168,53.021c-1.033-0.939-2.377-1.416-4-1.416h-0.242c-0.988,0-1.795-0.293-2.475-0.895
						c-0.684-0.607-1.002-1.305-1.002-2.191V32.412c0-3.621-1.426-6.712-4.238-9.19c-2.809-2.47-6.301-3.725-10.377-3.725
						c-1.191,0-2.355,0.117-3.477,0.352V13.33c0-1.436-0.537-2.626-1.596-3.544c-1.049-0.908-2.398-1.368-4-1.368
						c-1.611,0-2.955,0.464-3.984,1.377c-1.027,0.918-1.551,2.105-1.551,3.535v31.353c0,1.431,0.523,2.617,1.551,3.536
						c1.029,0.912,2.373,1.376,3.984,1.376c1.602,0,2.951-0.46,4-1.368c1.059-0.918,1.596-2.108,1.596-3.544V32.412
						c0-0.882,0.32-1.57,0.994-2.159c0.68-0.585,1.49-0.873,2.482-0.873c0.965,0,1.729,0.284,2.414,0.892
						c0.684,0.611,1.004,1.29,1.004,2.145l0.061,16.104c0,3.616,1.414,6.716,4.201,9.203c2.787,2.496,6.291,3.76,10.412,3.76h0.242
						c1.613,0,2.951-0.463,3.984-1.376c1.029-0.917,1.557-2.105,1.557-3.536C160.709,55.146,160.188,53.953,159.168,53.021z
						 M157.094,58.276c-0.48,0.427-1.09,0.625-1.926,0.625h-0.242c-3.361,0-6.094-0.98-8.344-2.996
						c-2.26-2.021-3.355-4.435-3.355-7.391l-0.061-16.103c0-1.539-0.623-2.875-1.859-3.968c-1.232-1.093-2.738-1.651-4.473-1.651
						c-1.768,0-3.289,0.545-4.52,1.615c-1.238,1.075-1.865,2.424-1.865,4.004v12.271c0,0.732-0.229,1.269-0.721,1.691
						c-0.496,0.431-1.125,0.634-1.967,0.634c-0.836,0-1.445-0.197-1.926-0.621c-0.477-0.422-0.699-0.967-0.699-1.704V13.33
						c0-0.737,0.223-1.281,0.699-1.704c0.48-0.423,1.09-0.621,1.926-0.621c0.842,0,1.471,0.198,1.967,0.63
						c0.492,0.423,0.721,0.963,0.721,1.695v10.171l1.992-0.698c1.363-0.477,2.844-0.719,4.393-0.719
						c3.326,0,6.053,0.972,8.324,2.973c2.275,2.002,3.375,4.408,3.375,7.355V48.52c0,1.574,0.629,2.928,1.861,4.021
						c1.23,1.093,2.756,1.646,4.531,1.646h0.242c0.826,0,1.436,0.201,1.912,0.639c0.486,0.44,0.715,0.998,0.715,1.744
						C157.795,57.313,157.57,57.854,157.094,58.276z"/>
				</g>
			</g>
			<g>
				<path fill="#FFFFFF" d="M157.795,56.57c0,0.743-0.225,1.283-0.701,1.706c-0.48,0.427-1.09,0.625-1.926,0.625h-0.242
					c-3.361,0-6.094-0.98-8.344-2.996c-2.26-2.021-3.355-4.435-3.355-7.391l-0.061-16.103c0-1.539-0.623-2.875-1.859-3.968
					c-1.232-1.093-2.738-1.651-4.473-1.651c-1.768,0-3.289,0.545-4.52,1.615c-1.238,1.075-1.865,2.424-1.865,4.004v12.271
					c0,0.732-0.229,1.269-0.721,1.691c-0.496,0.431-1.125,0.634-1.967,0.634c-0.836,0-1.445-0.197-1.926-0.621
					c-0.477-0.422-0.699-0.967-0.699-1.704V13.33c0-0.737,0.223-1.281,0.699-1.704c0.48-0.423,1.09-0.621,1.926-0.621
					c0.842,0,1.471,0.198,1.967,0.63c0.492,0.423,0.721,0.963,0.721,1.695v10.171l1.992-0.698c1.363-0.477,2.844-0.719,4.393-0.719
					c3.326,0,6.053,0.972,8.324,2.973c2.275,2.002,3.375,4.408,3.375,7.355V48.52c0,1.574,0.629,2.928,1.861,4.021
					c1.23,1.093,2.756,1.646,4.531,1.646h0.242c0.826,0,1.436,0.201,1.912,0.639C157.566,55.267,157.795,55.824,157.795,56.57z"/>
			</g>
		</g>
	</g>
</g>
</svg>
